<svg width="111" height="113" viewBox="0 0 111 113" fill="none" xmlns="http://www.w3.org/2000/svg">
<path id="Shape" fill-rule="evenodd" clip-rule="evenodd" d="M98.3033 85.0587C101.033 88.382 103.807 91.6537 106.625 94.8738C106.923 95.2686 107.268 95.6663 107.621 96.074C109.035 97.7059 110.588 99.4992 109.866 101.915C109.231 103.355 108.086 104.4 106.736 104.772C105.31 105.351 103.867 105.871 102.424 106.391C101.488 106.728 100.552 107.066 99.6204 107.419C95.1219 109.172 90.5478 110.643 85.9179 111.827C85.0998 112.161 84.2177 112.213 83.3787 111.975C82.6598 111.648 82.1115 110.954 81.8903 110.092C81.6691 109.23 81.7995 108.295 82.244 107.553C83.1618 106.394 84.301 106.096 85.7912 105.707C86.6669 105.478 87.6639 105.218 88.8084 104.732C90.3791 104.154 91.9569 103.589 93.5259 103.026C94.7529 102.586 95.9745 102.148 97.183 101.708C94.8449 101.078 91.8719 100.128 89.1369 99.2546C88.0206 98.898 86.944 98.554 85.9664 98.2497C70.0053 92.7195 55.5603 82.4973 44.0136 68.5612C42.1112 66.0575 40.5019 63.2701 39.2273 60.2711C25.0055 59.9683 11.8753 51.5285 4.11514 37.7019C1.64707 32.9182 1.09769 27.2068 0.586626 21.7469C-0.0726483 15.4402 0.0877278 9.0464 1.06236 2.78084C1.17203 1.68902 1.82523 0.7714 2.72664 0.442805C3.62806 0.11421 4.60686 0.436919 5.22056 1.26504C5.91964 2.16562 5.75802 3.34248 5.60529 4.45465C5.58112 4.63066 5.55717 4.80505 5.53689 4.97647C5.29337 7.00359 5.05456 9.03448 4.95552 11.0779C4.93416 18.723 5.86846 31.2204 9.395 36.007C16.0276 46.3008 26.1397 52.7682 37.1851 53.7808C35.5531 46.6796 36.6 39.0814 40.0635 32.8898C42.7942 29.5321 46.629 27.7047 50.5796 27.8785C54.3295 28.1864 57.6469 30.778 59.3071 34.6964C64.1947 43.2799 58.4359 52.1822 52.0523 56.949C49.9915 58.5521 47.6337 59.5563 45.1781 59.8769C45.2633 60.043 45.3421 60.2096 45.4208 60.3762C45.5407 60.6297 45.6605 60.8832 45.803 61.1348C49.5406 66.3449 53.8277 70.9831 58.5641 74.9408C70.1433 85.3696 81.7742 90.6616 96.7358 95.0374C97.2688 95.2564 97.8347 95.431 98.4053 95.6069C98.9721 95.7818 99.5435 95.958 100.092 96.1806C96.0876 91.2793 92.095 86.3654 88.1139 81.439C87.5244 80.61 87.3615 79.474 87.6867 78.4591C88.0119 77.4441 88.7758 76.7043 89.6905 76.5184C90.6052 76.3324 91.5319 76.7286 92.1215 77.5576C94.1849 80.0548 96.2455 82.5551 98.3033 85.0587ZM43.0068 53.5651C43.7605 53.4857 44.5118 53.384 45.2569 53.2441C49.1765 52.2892 52.0419 49.6419 55.1605 44.4537C57.2016 41.4856 54.9899 34.9095 52.0057 33.3664C49.8528 31.9007 45.2088 33.7154 44.0068 35.9627C41.6027 41.4263 41.2394 47.8223 43.0068 53.5651Z" fill="black"/>
</svg>
