<svg width="1440" height="815" viewBox="0 0 1440 815" fill="none" xmlns="http://www.w3.org/2000/svg">
<g opacity="0.524559">
<path d="M100 490.962C100 490.962 117.389 488.953 131.141 483.143C144.892 477.332 149.381 470.096 149.381 470.096C149.381 470.096 157.851 482.383 165.217 486.356C172.584 490.329 191.304 492.71 191.304 492.71" stroke="black" stroke-width="3"/>
<path d="M158.696 514.348C158.696 514.348 176.085 512.34 189.836 506.529C203.588 500.719 208.076 493.483 208.076 493.483C208.076 493.483 216.547 505.769 223.913 509.742C231.279 513.715 250 516.096 250 516.096" stroke="black" stroke-width="3"/>
</g>
<g opacity="0.524559">
<path d="M305.466 220.554C305.466 220.554 316.92 217.391 325.54 212.123C334.16 206.856 336.419 201.638 336.419 201.638C336.419 201.638 343.375 208.788 348.728 210.608C354.081 212.429 366.884 212 366.884 212" stroke="black" stroke-width="3"/>
<path d="M340.387 191.736C340.387 191.736 351.842 188.573 360.462 183.305C369.082 178.038 371.341 172.82 371.341 172.82C371.341 172.82 378.297 179.97 383.65 181.79C389.003 183.611 401.806 183.182 401.806 183.182" stroke="black" stroke-width="3"/>
</g>
<g style="mix-blend-mode:darken">
<path fill-rule="evenodd" clip-rule="evenodd" d="M0 105.5C0 105.5 1.40658e-05 87.9144 7.15256e-06 71C-5.72205e-06 39.5 53.6777 34.1601 84.5 30C329 -3 777.298 47.6401 900.107 55.2901C1022.92 62.9402 1095.42 56.6211 1209.85 52.2558C1324.28 47.8904 1440 0.746643 1440 0.746643V112L0 105.5Z" fill="#5AA9E6"/>
</g>
<g style="mix-blend-mode:darken">
<rect y="64" width="1448" height="3379" fill="#5AA9E6"/>
</g>
</svg>
