<svg id="Layer_1" data-name="Layer 1" xmlns="http://www.w3.org/2000/svg" viewBox="0 0 1000 1000"><defs><style>.cls-1{fill:#77edff;}.cls-2{fill:#d4d4d4;}.cls-3{fill:#dedede;}.cls-4{fill:#f9f2ed;}.cls-5{fill:#e5e4e3;}.cls-6{fill:#fffbd0;}.cls-7{fill:#e8e29c;}.cls-8{fill:#1b2e8a;}.cls-9{fill:#4a60c9;}.cls-10{fill:#ffe4d0;}.cls-11{fill:#ffe2a2;}.cls-12{fill:#f0c6a8;}.cls-13{fill:#ffd9bd;}.cls-14{fill:#4355ab;}.cls-15{fill:#97ede9;}.cls-16{fill:#732c37;}.cls-17{fill:#57212a;}.cls-18{fill:#74e3de;}.cls-19{fill:#233940;}</style></defs><title>Business Agreement</title><path class="cls-1" d="M543.09,154.6c122.47,26.74,254.64,74.19,311.73,195.3C886,416,890.76,491.45,887.43,564.45,884.17,636,872.53,718,824,774.35c-49.88,57.91-129.19,54.24-198.12,68.35-54,11-104.51,34.56-156.47,53s-107.79,31.86-162,21.74c-45.19-8.44-86.17-32.89-120.72-63.22-78.88-69.24-150-164.59-159.91-271.74-5.06-54.79,2.07-110,12.4-164.06,14.15-74.08,30-135.56,88.83-184.15C226,153.42,348.25,124.3,473,142,495,145.11,518.72,149.28,543.09,154.6Z"/><path class="cls-2" d="M924.24,114.94a11.42,11.42,0,0,1-6.77,6.17c-59.92,21.91-95,87.7-93.57,150.73-7.27.07-23.31-.2-30.55-.12l-8.74.12-75.84,1.23c-10.3.16-8.33-16.58-1.26-20.8a11.19,11.19,0,0,1,.61-1.68,387.49,387.49,0,0,1,63.94-98.12c7.81-11.48,16.23-22.49,26.32-31.89a101.22,101.22,0,0,1,59.4-26.53,88,88,0,0,1,66.47,20.88Z"/><path class="cls-3" d="M952.68,203.3a85.72,85.72,0,0,1-31.52,46c-17.52,12.89-36.75,19-58,20.22-13.71.76-28.86,2.2-42.62,2.33-1.41-63,37-128.82,96.9-150.73a11.42,11.42,0,0,0,6.77-6.17C949.18,136.35,961.75,170.82,952.68,203.3Z"/><path class="cls-4" d="M812,112.55q-1.9,1.44-3.76,2.93A264.86,264.86,0,0,0,763.63,162c-32.81,43.24-53.29,94.36-57.93,148.5q-.63,7.37-.77,14.77c-.36,20.46,2.21,40.82,5.71,60.94,1.45,8.31,6.68,21,5.5,29.21-1,6.91-8.6,9.9-14.62,12l-32,11.43-88,31.45-5.69,2L410.14,531.68c-3.89,1.39-8.09,3-12.51,4.61q-2.73,1-5.61,2l-2.16.77c-28.83,10.12-66,19.28-81-10.52-.18-.35-.35-.7-.55-1.15-4.58-9.74-5.56-20.81-6.22-31.59-2.26-36.92-2.31-75.46,1.18-113.8,6.36-70.17,24.55-139.69,62.66-197.56,18.94-28.71,42.72-54.34,71.42-73.5,31.84-21.26,68.3-31.71,106.26-34.56,43.56-3.26,87.75.61,131.31,2.32,50.22,1.95,100.37,7.37,150.45,11.47,12.79,1,27.36.56,39.57,3.38C845,92.35,827.48,100.85,812,112.55Z"/><path class="cls-5" d="M701.51,427.5l-32,11.43-88,31.45-5.69,2L410.14,531.68c-3.89,1.39-8.09,3-12.51,4.61-1.83.67-3.7,1.36-5.61,2l-2.16.77c-29,10.15-64.18,18.56-81.56-11.67h0c-4.58-9.74-5.56-20.81-6.22-31.59q-.92-15.07-1.33-30.47c-1.07-42.1,43.4-70.15,80.92-51l.56.29c23.39,12,45.46,29.6,71.12,26.59,28.15-3.29,60-26.84,87.71-32.48,49.28-10.07,122.36,2.3,174.21-4.05.54,4,2.27,7.45,3,11.43,0,.23-10.41-.5-10.36-.28C708.87,421.09,706.67,425.66,701.51,427.5Z"/><path class="cls-6" d="M294.17,537.22A126,126,0,0,0,274.49,653c2.16,6.59,6.87,13.92,2.55,20.73-3.22,5.08-11.51,5.63-15.06,11-4.69,7-11.8,11.2-19.75,13.63-2.67.82-5.41,1.37-8.11,2.09-.32.07-.64.17-1,.26s-1.92.47-2.72.7l-.17.16h.1c1-.4.79-.27-.48.37l-.22.2-.17.16c-.51-.21-1-.41-1.56-.57A16.44,16.44,0,0,0,215.15,703a15.21,15.21,0,0,0-2.95,2.22,13.52,13.52,0,0,1-7.71-7.58,14.05,14.05,0,0,1-.69-2.33,259.91,259.91,0,0,1,1.51-113.59,241.07,241.07,0,0,1,7.85-26.08c3.29-9,6.64-18.75,11.67-26.95,6-9.77-.57-26.76,11-25.93,16.4,1.17,30.5,2.13,46.94,2.73,13.75.5,32.7-6,45.16,1.47A122.28,122.28,0,0,0,294.17,537.22Z"/><path class="cls-7" d="M297.08,692c-6.48,1.62-35.93,6.69-42.51,7.77l-41.84,6.83a2.07,2.07,0,0,1-2.35-2.26,13.25,13.25,0,0,1-6.59-9,259.87,259.87,0,0,1,1.51-113.59,242.37,242.37,0,0,1,7.84-26.08c3.29-9,6.64-18.75,11.67-27,6-9.76-.74-15.59,10.87-14.75,1.92.14,3.84.31,5.76.55-13.37,42.08-13.14,73.86-12.24,99.32q.12,3.46.43,6.73c2.1,22,20.47,40.35,42.54,39.49a6.51,6.51,0,0,1,3.64.76c6.07,3.63,9.66,18,13.32,27C290.66,691.44,300.76,691.05,297.08,692Z"/><path class="cls-8" d="M817.06,648.79C815.18,642,807.44,637,800.4,639q-.51-.52-.15,0h0c-1.86-2.54-2.33-4.41-3.31-7.12-3.22-9-5.32-20.14-8.43-29.13-6.09-17.66-8.68-33.31-14.48-51.07-2.33-7.12-14-11.64-21.43-9.58-7,1.92-12,9.92-9.69,17.07q10.68,32.67,22,65.13c3.37,9.63,5,26.45,11,34.88,6.82,9.71,18.65,16,30.57,12.12C813.56,669,819.12,656.27,817.06,648.79Z"/><path class="cls-9" d="M953.1,574.11c-30,57-88.68,93.74-152.56,98.32-7.52.53-8.62-4.26-8.62-11.34,0-2,.3-6,1-7.66,2.43-5.6.47-20.55-.33-26.64-1.21-9.2-3.19-18.2-5-27.31-6.93-34.85-21.85-67.49-37.94-98.95-8-15.7-16.44-31.21-24.57-46.86-4.63-8.91-24-34.39-11.62-41.51,3.22-1.85,7-2.42,10.64-3.09a153.44,153.44,0,0,0,76.62-39c10.27-9.62,18.37-20.87,26.79-32,6.92-9.15,14.61-21.8,26-25.91,13.17-4.77,30.79.45,42.78,6.16C920.62,330,945.35,350.78,956.19,376c1.94,4.52,3.63,9.09,5.12,13.74a231.15,231.15,0,0,1,8.06,34.65c2.89,17.83,5.18,35.88,5.58,54C975.65,511.72,968.7,544.48,953.1,574.11Z"/><path class="cls-10" d="M668.45,649.53c-.11.58-.22,1.17-.35,1.75-6.14,30.75-31,54.18-54.56,72.94-14.8,11.79-31.63,20.75-49,28.07-3.23,1.35-6.45,2.64-9.72,3.88-5.83,2.26-11.72,4.34-17.65,6.34-1.53.51-3.15,1.15-4.83,1.82a0,0,0,0,1,0,0c-5.74,2.28-12.12,5-17.68,5-18.32.16-9.94-32.65-32.18-31-25,1.82-48.47-11.08-70-22.13a254.92,254.92,0,0,0-56.17-21c-18.32-4.47-37.43-5.56-56.11-7.57a31.79,31.79,0,0,1-8.19-1.6c-4.1-1.59-6.18-4.92-8.11-8.66-.51-1-1-2-1.48-2.94-20.78-42.29-19.31-91.19,7.06-131.07,20.47-31,52.45-49.57,88-58.59A253.53,253.53,0,0,1,430.62,477c27.86-1,47.23,8.82,60.41,32.69,12.14,22,27.95,45.21,53.72,51.94,17.41,4.54,35.77.33,53.76.49a110.83,110.83,0,0,1,45.06,10.06c6.44,3,12.76,6.69,16.86,12.43s5.56,12.72,6.73,19.6c.57,3.34,1.08,6.69,1.49,10.06C670.13,626,670.49,637.89,668.45,649.53Z"/><path class="cls-11" d="M413.61,569.47a199.12,199.12,0,0,0-17.33,36.47c-2.38,6.76-8.78,11.36-16,9.93a13.81,13.81,0,0,1-1.68-1.44c-4.89-4.89-5.86-14.95,0-19.63C389.79,585.82,401.2,576.72,413.61,569.47Z"/><path class="cls-11" d="M413.61,569.47a199.12,199.12,0,0,0-17.33,36.47c-2.38,6.76-8.78,11.36-16,9.93a13.81,13.81,0,0,1-1.68-1.44c-4.89-4.89-5.86-14.95,0-19.63C389.79,585.82,401.2,576.72,413.61,569.47Z"/><path class="cls-12" d="M263.9,682.08l0-.67q0-.31.11,1.61Z"/><path class="cls-13" d="M715.55,606c-10.83,3.56-21.42,7.63-31.21,13.35l-.92.36a28.91,28.91,0,0,1-15,1.8,14.17,14.17,0,0,1-9.74-6.07,10.88,10.88,0,0,0-1.47-2.06c-.66-.63-1.53-1-2.19-1.64-1.18-1.14-1.49-2.89-2.21-4.31a34.08,34.08,0,0,0-2.83-4.65,38.42,38.42,0,0,0-7.46-7.63c-5-3.92-11.77-5.68-17.91-6.94l-1.09-.22c-12.43-2.4-26.56,3.17-38.39,5.81-80.08,17.87-92-30.91-131.74-16.64-5.43,3.52-10.75,7.23-15.86,11.19-14.38,6.27-27.05,16.34-39.28,26.09-5.31,4.28-12.35,5.55-17.94,1.44a5.3,5.3,0,0,1-1.08-.24c-6.83-1.88-12.19-10-9.67-17.06a231.08,231.08,0,0,1,24.41-50c27.21-41.76,70-68.09,112.68-94.46,22.62-14,91.78-33.56,117-36.76,14.34-1.84,27.13,27.37,27.25,27.81a0,0,0,0,0,0,0,358.12,358.12,0,0,1,62.37,123.15c2.28,8,4.24,16.1,5.91,24.29C720.22,597.87,718.86,602.63,715.55,606Z"/><path class="cls-11" d="M595.59,598.79h-.05a1.91,1.91,0,0,0,.63.62C596,599.2,595.77,599,595.59,598.79Z"/><path class="cls-12" d="M752.15,590.52a8.82,8.82,0,0,1-1,.32,142.29,142.29,0,0,0-35.72-20.74,4.64,4.64,0,0,1-2.2-1.8,3.43,3.43,0,0,1-.6-1.28A357.84,357.84,0,0,0,671,474.21c-3-4.71-10.27-1.36-8.59,4,7.47,23.22,18,52.74,12.59,77.36-2.56,11.91-7.67,22.94-9.91,35.12-1.66,9-3.18,18.4-6.75,26.85,1.81,4.45,9.48,44.12.79,58.79,5.79-2.49,21.36-31.47,25.25-39.17,1-1.93,4.89-7.63,6-9.49,9.49-16,21.64-15.92,32.46-19.48,12.55-4.12,32.26-7.63,44.45-12C769.53,595.36,754.42,589.72,752.15,590.52Z"/><path class="cls-14" d="M953.09,574.11c-30,57-88.67,93.74-152.55,98.31-7.52.53-8.95.41-8.95-6.68,0-2,2-21.36,2.66-23-4-58.19-26.57-104.66-53-156.48a485.59,485.59,0,0,0,60.39-13.7,474.39,474.39,0,0,0,159.65-82.9,232.15,232.15,0,0,1,8.05,34.65c2.88,17.84,5.19,35.89,5.58,54C975.67,511.73,968.69,544.48,953.09,574.11Z"/><path class="cls-12" d="M670,652.29c-3.48-14.82-7.09-29.93-15-43s-21-20.54-36.16-21.8a53.55,53.55,0,0,0-9.05.47c4-3.28,34.85-9,48.53-38.29,18-38.46,8.43-58.14-8.35-94.42,30.23,27.4,49.11,66.63,53.71,106.41C707.5,594.48,689.56,625.69,670,652.29Z"/><path class="cls-15" d="M786.6,589.5a2.66,2.66,0,0,1-.67,1.33c-.11,0-7.09.94-7.22.94-6.94,0-30.49,6.89-35.9,7.88-12.31,2.26-20-6.75-26.47-17.48-2-3.33-5-8.19-6.24-12.08-8.75-26.54-27.73-67.48-70.62-135.43-.17-.27-14.5-17.17-14.67-17.44,0,0,45.47-5.78,86.21-5.78,4.29,7.61,12.59,27.14,16.39,34.68,24.8,49.12,44.52,94.67,52.19,123.07C782.62,580.28,786.56,587.31,786.6,589.5Z"/><path class="cls-9" d="M864.17,606.2a16.22,16.22,0,0,1-32.45,0,16,16,0,0,1,.22-2.66,16.23,16.23,0,0,1,32.23,2.66Z"/><path class="cls-16" d="M76.53,323.16Z"/><path class="cls-16" d="M234.23,499.33a15.05,15.05,0,0,0-9.31-2,37.69,37.69,0,0,1-8.87.2l-2.51-.32a18.44,18.44,0,0,1-2.79-.59,153.8,153.8,0,0,1-63.19-36.32,179.37,179.37,0,0,1-16.19-17.47c-.45-.56-.92-1.14-1.36-1.71,0,0-.33-.41-.92-1.23-1.2-1.67-2.42-3.31-3.58-5q-3.26-4.76-6.2-9.71c-8.56-14.45-13.06-25.53-17-42.38-.27-1.15-5.6-20.7-10.53-46.59a16.14,16.14,0,0,0-14.52-13l-.21,0h-.46a16.07,16.07,0,0,0-16.61,10.92c-23.72,72.3-37.15,150.68-34.63,221.3.13,3.46.29,6.9.5,10.34,0,.4,0,.82.06,1.22q.24,4.1.58,8.2.58,5.72,1.27,11.22a448,448,0,0,0,9.14,50.14c.75,3.11,1.53,6.1,2.3,8.95,0,0,0,.11.06.24.14.53.28,1.05.43,1.58,7.12,26.07,14,40.44,14,40.44C67.82,718.64,92,745.87,123.84,759c1.71.72,3.43,1.37,5.17,2a1,1,0,0,0,.26.08c24,8.28,50.33,6.63,73.3-3.24,1.73-.73,3.46-1.53,5.16-2.37,7.77-5.15,11.8-13.68,13.67-23,2.44-12.13,1.78-25.42-.72-37.49-1.31-6.34-1.31-14.73-2.94-21-9.92-38.06-9.91-76.73,3.07-113.81a202,202,0,0,1,19-39.67C244.18,513.41,241.32,503.47,234.23,499.33Z"/><path class="cls-16" d="M77,323.19h0Z"/><path class="cls-17" d="M222.41,729c-1.63,12.44-7,23.36-19.83,28.87-23,9.86-49.31,11.52-73.3,3.24A1,1,0,0,1,129,761c-1.74-.59-3.46-1.24-5.17-2-31.83-13.18-56-40.41-70.23-71.36,0,0-6.86-14.37-14-40.44-.13-.51-.26-1.05-.44-1.63,0-.14.24-.28.2-.41a411.3,411.3,0,0,1-12.34-70.08,14.87,14.87,0,0,0-.38-1.9c-.33-2.08-.6-4.18-.78-6.3,0-.4-.08-.8-.1-1.22-.3-3.5-.49-7.07-.72-10.71a3,3,0,0,1,.23.36.7.7,0,0,0,.11.18,1.29,1.29,0,0,1,.13.15,247.73,247.73,0,0,0,137.51,80.37c14.63,3,29.77,2.51,44.24,6.42a6.56,6.56,0,0,1,3.42,1.74,6.75,6.75,0,0,1,1.21,3.11C217.19,672.8,225.85,702.85,222.41,729Z"/><path class="cls-18" d="M783.07,578.48a65.21,65.21,0,0,0,3.54,7.8,4.47,4.47,0,0,1,.59,1.74,3.78,3.78,0,0,1-1.76,2.94c-2.89,2.24-6.44,2.74-9.9,3.48-3.8.81-7.49,2.19-11.24,3.21-7.24,2-51.44,10.74-70.17,24.72-2.48,1.85,15.63-60.77,7.91-72.84,11.64,1.68,30.58,28.27,42.28,27.1,4.69-.47,9.62-2.47,11.84-6.63,2.05-3.84,1.32-8.52.44-12.79-3.76-18.31-9.26-36.3-14.07-54.35l-7.66-28.78L731,459.7c-1.12-4.22-1.66-9.71-3.62-13.59C739,469,750.06,492.24,760.12,515.87c6.51,15.28,13.59,30.25,18.06,46.3,1.14,4.07,2.48,8.09,3.6,12.16C782.18,575.73,782.6,577.12,783.07,578.48Z"/><path class="cls-12" d="M576.66,594.77a228.25,228.25,0,0,1,34.25-6.9c-28.77,23.52-68.56,29.89-104.9,21.69-18.08-4.08-36.21-12.34-54.36-8.7-11.27,2.24-21.07,8.84-31.43,13.78-7.31,3.5-15.57,6.16-23.5,5.82q22.7-18.19,45.39-36.41c6.22-5,12.82-10.17,20.71-11.47,13.56-2.24,25.8,7.38,37.81,14.09C523.52,599.42,551.36,601.53,576.66,594.77Z"/><path class="cls-17" d="M205.05,552.4c-.4-2.82-3.31-6-5.64-7.34a11.1,11.1,0,0,0-1.18-.59c-2-3.86-6.07-6.12-10.76-6.54-7.2-.64-14.65,4-18,10.27a19.14,19.14,0,0,0,26.41,25.46,20.25,20.25,0,0,0,7.29-7.58C205.66,561.6,205.75,557.28,205.05,552.4Z"/><path class="cls-12" d="M667.05,651.29q0,1.38-.12,2.75c-.58,6.78-3.26,13.21-6.49,19.19-8.87,16.41-22,30.16-36.29,42.15a259,259,0,0,1-102.8,52.53c-4.06,1-8.52,1.92-12.31.14-8.09-3.79-7.12-15.83-12.54-22.93-8.09-10.6-26-6.12-37.49-9-16.5-4-31.59-12.22-46.6-19.93a254.93,254.93,0,0,0-56.17-21c-18.32-4.47-37.43-5.56-56.11-7.57a31.79,31.79,0,0,1-8.19-1.6c-4.1-1.59-6.18-4.92-8.11-8.66-.51-1-1-2-1.48-2.94a139.16,139.16,0,0,1,5.76-17.63,3,3,0,0,1,5-.89c21.8-17,55.07-7.95,74.45,8.44,20.22,17.1,40,36.81,65.92,44.74,17.94,5.48,37.29,2.67,55.74,4.26,19.35,1.67,39,3.2,56.78-6.25,13.51-7.16,23.18-19.32,31.16-32.06,7.52-12,12.18-25.12,26-31.3,8.72-3.9,19.83-6.13,24.68-15.34s-.53-21.29-9.61-26.17-21.18-4.2-30.57.06c12.58-15.77,39-18.29,54.93-6,11,8.51,16.61,22.14,20.76,35.42C665.31,638.09,667.09,644.66,667.05,651.29Z"/><path class="cls-12" d="M552.07,583.76c-3.33-.62-6.68-1.1-10-1.45-5-.53-10.19-.78-14.8-2.85-15.9-7.12-8.3-33.48,7.54-35.22-3,.33-5.9,1-8.86,1.62-3.46.78-6.78,2.08-10.17,3.1a239.65,239.65,0,0,0-23.87,8.65c-7.87,3.31-15.57,7-23.12,11-2.83,1.49-18.48,12.84-20.76,12a316.58,316.58,0,0,0,54.56,15.84c11.2,2.13,22.46,4.55,33.89,5,9.22.33,19.85,4.58,28.31.91,2-.88,4-2.08,5.94-3.18,9-5,39.05-5.4,28.85-9.09C593.76,587.88,558.16,584.89,552.07,583.76Z"/><path class="cls-16" d="M203,555.08a4.64,4.64,0,0,1,0,.66,14.21,14.21,0,0,1-5.79,1.43,12.65,12.65,0,0,1-8.9-3.68,9.33,9.33,0,0,1-2.59-4,9.55,9.55,0,0,1-1.08-4.86c0-.19,0-.78,0-1a14.59,14.59,0,0,1,5.38-1.41h.39a13.13,13.13,0,0,1,8.9,3.67C201.78,548.17,202.84,551.83,203,555.08Z"/><path class="cls-13" d="M276.57,660.7s34.55-17.26,86.49,26,105.88,53.94,142.09,52.48c18.39-.74,22.81,20.57,2.42,30.76C476.94,785.28,325.85,778.57,276.57,660.7Z"/><path class="cls-19" d="M664.86,710.2a127.28,127.28,0,0,0,4.38-38.58,121,121,0,0,0-7-37.83,90.41,90.41,0,0,0-8.31-17,65.41,65.41,0,0,0-12.08-14,55.9,55.9,0,0,0-7.43-5.27c-.65-.37-1.31-.8-2-1.13l-1.92-.89-1-.45-1-.33-2-.68a34.67,34.67,0,0,0-8.49-1.1c-1.44-.11-3,.09-4.44.12-1.51.2-3,.28-4.54.57-6.1,1-12.34,2.74-18.84,4.43-3.23.85-6.57,1.71-10,2.39s-6.91,1.17-10.37,1.52a144.92,144.92,0,0,1-41.17-1.86c-3.37-.61-6.72-1.36-10-2.2l-2.49-.65-2.56-.78c-1.73-.49-3.34-1.16-5-1.77-6.5-2.54-12.4-5.75-18.34-8.59s-11.83-5.5-17.91-6.95a33.94,33.94,0,0,0-18.22.25h0a2.5,2.5,0,0,1-1.66-4.71,39.6,39.6,0,0,1,21.18-1.69c7,1.19,13.44,3.82,19.66,6.39s12.23,5.41,18.22,7.51c1.5.49,3,1,4.49,1.4l2.24.6,2.37.52c3.16.67,6.35,1.25,9.55,1.7a140.25,140.25,0,0,0,38.44.38c3.16-.42,6.3-1,9.34-1.69s6.21-1.53,9.4-2.43,6.43-1.79,9.75-2.64,6.74-1.56,10.29-2.06a50.17,50.17,0,0,1,22.14,1.09l2.71,1,1.35.5,1.29.64,2.57,1.3c.82.45,1.55,1,2.33,1.43a66.22,66.22,0,0,1,8.66,6.52A75.25,75.25,0,0,1,662,611.75a92.84,92.84,0,0,1,8.64,19.11,129,129,0,0,1,5.85,40.69,127,127,0,0,1-6.91,40.19,2.49,2.49,0,0,1-4.75-1.5Z"/><path class="cls-19" d="M206.69,751.4c6.14-5.1,9.47-12.77,11.74-20.78s3.66-16.63,6.45-25.21a79.93,79.93,0,0,1,12.64-23.94A73.52,73.52,0,0,1,258,663.38c15.83-9.46,35.13-12.4,53.18-9.29a87.24,87.24,0,0,1,26,8.85A124.91,124.91,0,0,1,348.63,670l10.73,7.29,21.32,14.53c7.13,4.75,14.24,9.47,21.5,13.9A245.41,245.41,0,0,0,447.69,728c4,1.41,8,2.69,12,3.81A78.81,78.81,0,0,0,471.8,734c8.37.95,17,1.33,25.71,2.17a75.64,75.64,0,0,1,13.43,2.24,20.07,20.07,0,0,1,3.5,1.36c.57.28,1.15.55,1.71.85l1.62,1.12a17.33,17.33,0,0,1,2.94,2.7c.43.52.79,1.11,1.17,1.67l.56.85.41.93a15.45,15.45,0,0,1,1.38,7.78,18.65,18.65,0,0,1-2,7.3,20.3,20.3,0,0,1-4.54,5.91,19,19,0,0,1-6.54,3.73,2.5,2.5,0,0,1-1.77-4.66l.22-.09A13.86,13.86,0,0,0,514,765a14.84,14.84,0,0,0,3.07-4.46c1.48-3.29,1.64-7.1.1-9.9-1.39-2.9-4.59-4.64-8.1-5.63a70,70,0,0,0-12.15-1.5c-8.46-.49-17.14-.48-26-1.23a87,87,0,0,1-13.44-2c-4.3-1-8.55-2.26-12.76-3.61-16.84-5.38-32.82-13.07-48-21.83q-11.37-6.56-22.25-13.77c-7.27-4.77-14.41-9.67-21.47-14.62l-10.62-7.35a119.29,119.29,0,0,0-10.41-6.72,76.83,76.83,0,0,0-22.67-8.28,69.56,69.56,0,0,0-46.93,7.08,65,65,0,0,0-18.6,15.4,72.23,72.23,0,0,0-12.1,21.25c-2.87,7.74-4.62,16.23-7.4,24.66a64.62,64.62,0,0,1-5.42,12.41,35.51,35.51,0,0,1-9.16,10.45,2.49,2.49,0,0,1-3.09-3.91Z"/><path class="cls-19" d="M544.22,545.07c-34.71,5.79-67.69,20.34-96.54,40.08a170.51,170.51,0,0,0-20.13,16.6c-6.42,6.12-13.12,12.6-21.6,17.26a44.36,44.36,0,0,1-13.82,4.89,25.9,25.9,0,0,1-15.56-1.85,23.26,23.26,0,0,1-10.88-11.79,29.07,29.07,0,0,1-2.12-7.56,30.93,30.93,0,0,1-.07-7.77,44.86,44.86,0,0,1,4.3-14.14,70.8,70.8,0,0,1,3.43-6.24l3.64-5.73c4.89-7.55,10-15,15.53-22.15A246.61,246.61,0,0,1,408.06,526c3.13-3.3,6.42-6.46,9.75-9.57s6.83-5.95,10.26-8.86a491.81,491.81,0,0,1,43.08-32.41A415.75,415.75,0,0,1,517.8,448a372.4,372.4,0,0,1,50-20.7,325,325,0,0,1,52.64-12.79c35.88-5.64,71.7-4.06,106.38-9.06,4.33-.63,8.64-1.35,12.91-2.21l6.3-1.5c2.1-.5,4.22-.94,6.27-1.66l6.22-1.95c1-.33,2.08-.63,3.1-1l3.05-1.17c4.06-1.58,8.19-3,12.14-4.9a283.23,283.23,0,0,0,45.88-25.63,279.71,279.71,0,0,0,40.54-33.55c12.28-12.46,23.39-26.34,30.74-42.06l0-.08a2.5,2.5,0,0,1,4.55,2.06c-7.36,16.77-18.51,31.32-30.82,44.44a276.16,276.16,0,0,1-40.9,35.14,290.88,290.88,0,0,1-46.7,27.12c-4.05,2-8.31,3.58-12.51,5.29l-3.16,1.26c-1.06.4-2.15.73-3.23,1.1l-6.48,2.15c-2.14.78-4.37,1.29-6.59,1.86l-6.65,1.69c-4.44,1-8.88,1.78-13.35,2.51-35.73,5.77-71.63,4.6-106.07,10.52a336.89,336.89,0,0,0-50.82,12.87,400.38,400.38,0,0,0-48.54,20.12,462.44,462.44,0,0,0-88.17,57.47c-3.39,2.81-6.83,5.6-10,8.47s-6.36,5.89-9.38,9A236.89,236.89,0,0,0,398,552.54c-5.39,6.88-10.46,14-15.32,21.38l-3.57,5.49a61.89,61.89,0,0,0-3.05,5.41,35.94,35.94,0,0,0-3.65,11.2,22,22,0,0,0,0,5.54,20.31,20.31,0,0,0,1.38,5.27,14.67,14.67,0,0,0,6.64,7.59,17.58,17.58,0,0,0,10.51,1.27,35.82,35.82,0,0,0,5.73-1.41,42.45,42.45,0,0,0,5.54-2.41c7.25-3.81,13.65-9.68,20.15-15.71a178,178,0,0,1,21.27-17,245.84,245.84,0,0,1,23.33-13.71,259.53,259.53,0,0,1,24.54-11.27,232.55,232.55,0,0,1,52-14,2.49,2.49,0,0,1,.77,4.92Z"/><path class="cls-19" d="M241,526.09a223,223,0,0,0-12.33,27.32,182.94,182.94,0,0,0-8,28.52,289.54,289.54,0,0,0-4.83,29.31c-1,9.93-1.4,20-1.54,30.11a2.51,2.51,0,0,1-5,.39,185.17,185.17,0,0,1-2.57-31,139.51,139.51,0,0,1,3.08-31.23,150.31,150.31,0,0,1,10.57-29.64,146.85,146.85,0,0,1,16.4-26.54,2.5,2.5,0,0,1,4.19,2.7Z"/><path class="cls-19" d="M789.14,669.24c3.16-23.17,1.1-46.81-4-69.64s-13.24-45.05-22.43-66.74-19.47-43.07-29-64.87-18.37-44.11-24.41-67.43c-1.6-5.8-2.67-11.74-4-17.63-.66-2.94-1-5.95-1.48-8.92s-1-5.95-1.28-8.95c-.54-6-1.38-12-1.53-18l-.43-9,0-9a283.15,283.15,0,0,1,9.74-71.48,277.51,277.51,0,0,1,27.37-66.84c11.93-21,26.51-40.69,44.76-57.07a160.2,160.2,0,0,1,14.35-11.5,136.4,136.4,0,0,1,15.68-9.75A125.13,125.13,0,0,1,847.41,99.9a123.29,123.29,0,0,1,18.53-2.09A107.29,107.29,0,0,1,884.64,99a92,92,0,0,1,18.22,4.71,92.88,92.88,0,0,1,8.72,3.73,90.78,90.78,0,0,1,8.19,4.77A85.88,85.88,0,0,1,946,139.06a82.5,82.5,0,0,1,7.9,17.25A71.71,71.71,0,0,1,957,175.13a69.3,69.3,0,0,1-2.18,19,80,80,0,0,1-7.09,17.57,95,95,0,0,1-24.46,28,111.84,111.84,0,0,1-32.38,17.59,158.8,158.8,0,0,1-35.67,7.43c-24.14,2.36-48,.46-71.71-1.35-11.95-1-23.74-2.67-35.51-4.52s-23.47-4-35.11-6.52a706.26,706.26,0,0,1-69-18.22,2.5,2.5,0,0,1,1.48-4.78h0a700.69,700.69,0,0,0,68.76,16.84c23.17,4.41,46.55,8.14,69.95,10,23.55,1.52,47.2,3,70.29.48a150.46,150.46,0,0,0,33.69-7.44,103,103,0,0,0,29.6-16.56,85.81,85.81,0,0,0,21.76-25.45,70.72,70.72,0,0,0,6-15.39,59.54,59.54,0,0,0,1.72-16.25,61.77,61.77,0,0,0-2.85-16.09,72.48,72.48,0,0,0-7-14.93A75.54,75.54,0,0,0,914,121a80.2,80.2,0,0,0-7.19-4.11,82.39,82.39,0,0,0-7.65-3.18,81.19,81.19,0,0,0-16.18-4,102.29,102.29,0,0,0-16.74-.93,112.37,112.37,0,0,0-16.75,2c-22.22,4.33-42.6,15.86-59.69,31.11S758.61,175.93,747,196a267.13,267.13,0,0,0-26.86,64.17,273.32,273.32,0,0,0-9.95,69l-.09,8.74.35,8.73c.09,5.83.87,11.61,1.34,17.42.25,2.9.79,5.77,1.17,8.65s.74,5.78,1.36,8.63c1.18,5.7,2.13,11.45,3.63,17.1,5.59,22.68,14,44.69,23.19,66.41s19.26,43.23,28.28,65.28,16.83,44.75,21.72,68.24,6.62,47.81,3,71.65a2.49,2.49,0,0,1-4.93-.71Z"/><path class="cls-19" d="M79.79,383a160.35,160.35,0,0,0,39.79,82.87,170.19,170.19,0,0,0,35.7,29.48c13.24,8,27.39,14.59,42.25,18.63a145.16,145.16,0,0,0,22.55,4.49c3.81.35,7.61.77,11.43.75,3.82.21,7.61-.09,11.41-.24a68.41,68.41,0,0,0,21.56-4.91A47.84,47.84,0,0,0,282,501.92a48.43,48.43,0,0,0,10.7-18.53,81.38,81.38,0,0,0,3.45-22c.54-15.24-1.51-30.92-1.51-47.28,0-2,.05-4.14.13-6.15l.28-6c.22-4,.46-8,.77-12q1-12,2.44-23.88c2-15.89,4.75-31.67,8.27-47.29A443,443,0,0,1,337.27,228a365.05,365.05,0,0,1,23.3-42,299,299,0,0,1,29.12-38.26c5.34-6,11-11.67,16.93-17.12,2.93-2.75,6-5.34,9.05-8s6.26-5,9.52-7.39A197.32,197.32,0,0,1,467,91.45,2.5,2.5,0,0,1,469,96h0c-28.63,12.68-53.36,32.91-73.84,56.44a291.29,291.29,0,0,0-27.67,37.82,356.42,356.42,0,0,0-22,41.45C320.06,289,307.86,351.93,305.75,414.2c-.09,15.32,1.91,31.23,1.12,47.68a91.71,91.71,0,0,1-4.24,24.77,58.76,58.76,0,0,1-13.14,22.14,57.86,57.86,0,0,1-21.31,14.41,78.08,78.08,0,0,1-24.63,5.34c-4.11.12-8.23.38-12.33.11-4.11,0-8.19-.53-12.26-1A145.59,145.59,0,0,1,195,522.58a177,177,0,0,1-80.88-51.86,166.09,166.09,0,0,1-39.3-87,2.49,2.49,0,0,1,4.93-.7Z"/><path class="cls-19" d="M862.21,618.75a19.76,19.76,0,0,1-23.81,5.85,20.82,20.82,0,0,1-9.76-9.71,21.09,21.09,0,0,1-1.74-14A19.87,19.87,0,0,1,835,589.24a21,21,0,0,1,13.3-3.83,19.82,19.82,0,0,1,12.22,5.34A18.53,18.53,0,0,1,866.51,602a2.51,2.51,0,0,1-4.82,1.26l0-.11a14.24,14.24,0,0,0-5.65-6.6,12.81,12.81,0,0,0-7.73-2,12.09,12.09,0,0,0-6.79,3.12,13.4,13.4,0,0,0-3.8,6c-1.43,4.23.64,10.38,4.91,13.07s11.3,2.65,15.93-1.25l.09-.07a2.5,2.5,0,0,1,3.62,3.4Z"/><path class="cls-19" d="M194,571.26A13.82,13.82,0,0,0,200.85,558c-.47-4.77-4.14-9.15-8.59-11.25a18.55,18.55,0,0,0-7-2,15.56,15.56,0,0,0-7.4,1.26,12.34,12.34,0,0,0-5.57,4.84,13.81,13.81,0,0,0-1.85,7.82v.14a2.52,2.52,0,0,1-4.88,1,18,18,0,0,1,0-11.88,19.21,19.21,0,0,1,7.73-9.79,23.91,23.91,0,0,1,11.81-4,21.94,21.94,0,0,1,12.38,2.75,25.19,25.19,0,0,1,9,8.71,21.48,21.48,0,0,1,3.28,12.25,20.57,20.57,0,0,1-4.25,11.53,17.77,17.77,0,0,1-10,6.55,2.51,2.51,0,0,1-1.7-4.67Z"/><path class="cls-19" d="M651.05,451.07c5.33,8.3,13.25,15,20.12,23.11a122.76,122.76,0,0,1,9.22,12.92q4.21,6.68,7.77,13.74a172.31,172.31,0,0,1,11.47,29.39,163,163,0,0,1,5.9,31.07A150,150,0,0,1,706,577.2a128.55,128.55,0,0,1-1.58,15.93,155,155,0,0,1-9,30.49c-8,19.62-19.17,37.63-31.9,54.27-25.51,33.27-58.57,61.2-96.94,79-2.41,1.07-4.78,2.25-7.23,3.23l-7.35,3c-5,1.79-10,3.63-15,5.13-10,3.12-20.14,5.86-30.43,8-20.56,4.38-41.86,6.61-63.19,4.71a151.9,151.9,0,0,1-31.47-6.16,256.1,256.1,0,0,1-29.6-11.24A295.54,295.54,0,0,1,328,731.77q-6.35-4.7-12.42-9.78c-2-1.68-4-3.46-6-5.19s-3.94-3.62-5.82-5.53a144.9,144.9,0,0,1-20-25,138.65,138.65,0,0,1-21-60,118.62,118.62,0,0,1,27.15-89.7,143.47,143.47,0,0,1,23.05-21.87,161.44,161.44,0,0,1,26.94-16.53A211.88,211.88,0,0,1,369,486.35a286.14,286.14,0,0,1,61.37-11.87,2.5,2.5,0,0,1,.48,5h0A280.62,280.62,0,0,0,371,492.31a219.4,219.4,0,0,0-28.07,11.88,154.48,154.48,0,0,0-25.59,16.21,136,136,0,0,0-21.52,21,110.33,110.33,0,0,0-24.11,83.83,130.5,130.5,0,0,0,20.36,55.68A134.86,134.86,0,0,0,310.92,704c1.77,1.76,3.62,3.41,5.47,5.09s3.81,3.31,5.77,4.9q5.87,4.79,12,9.26a298.31,298.31,0,0,0,52.66,30.27,245,245,0,0,0,28.35,10.64A141.19,141.19,0,0,0,444.42,770c19.88,1.82,40.16-.14,60-4.15,9.94-2,19.79-4.58,29.55-7.53,4.92-1.44,9.63-3.12,14.4-4.79l7-2.77c2.35-.92,4.62-2,6.94-3,36.86-16.7,69-43.38,94.1-75.32,12.58-16,23.63-33.24,31.46-51.86a147.38,147.38,0,0,0,8.91-28.75,121,121,0,0,0,1.67-14.87,142.8,142.8,0,0,0-.23-15.06,165.16,165.16,0,0,0-15.63-58.32q-3.28-6.86-7.23-13.37a117.52,117.52,0,0,0-8.53-12.46c-6.28-7.78-14.29-14.74-20.05-24A2.49,2.49,0,0,1,651,451Z"/><path class="cls-19" d="M671.61,577.55c14.09,9.87,30.92,15,47.9,16.82s34.34.27,51.07-3.43c4.19-.95,8.35-2,12.5-3.11l6.19-1.81,6.16-2a213.36,213.36,0,0,0,24-9.87,228.29,228.29,0,0,0,22.75-12.7c7.34-4.7,14.46-9.78,21.4-15.16l0,0a2.5,2.5,0,0,1,3.27,3.78,208.64,208.64,0,0,1-43.23,32.18c-15.78,8.8-32.8,15.89-50.74,19.49a153.67,153.67,0,0,1-54.56,1.47,122.48,122.48,0,0,1-26.42-7.45c-2.12-.88-4.18-1.9-6.24-2.9s-4.08-2.11-6-3.37a79.85,79.85,0,0,1-11.13-8.05,2.49,2.49,0,0,1,3-4Z"/></svg>