<svg xmlns="http://www.w3.org/2000/svg" viewBox="0 0 1400 501.19" xmlns:v="https://vecta.io/nano"><style><![CDATA[.F{letter-spacing:0em}.D{letter-spacing:-.01em}.E{letter-spacing:0em}]]></style><path d="M278.28 315.33c-2.26-15.18-1.97-18.3 6.27-68.17 3.01-18.2 4.8-34.92 3.98-37.15-1.32-3.63-4.03-3.94-25.01-2.92-24.38 1.18-35.16 4.55-40.38 12.6-1.62 2.51-4.23 4.53-5.8 4.51-5.81-.1 8.02-20.56 20.19-33.97 13.02-14.34 10.9-16.32 79.35-14.44l46.82 1.29c7.64.21 13.61 6.7 13.14 14.33l-.25 4.75c-.33 7.62-6.85 13.48-14.46 12.93l-12.85-.93c-15.16-1.09-28.77-1.06-30.51.07-2.42 1.58-3.42 13.27-4.37 51.01-.82 32.84-.83 44.45.77 50.62.9 3.47 3.16 6.5 6.32 8.21 18.01 9.72 34.79-38.69 32.75-18.84-2.05 15.8-2.78 33.1-20.8 45.03-17.31 11.46-48.7 7.76-55.17-28.91z" fill-rule="evenodd"/><path d="M492.62 172.27L422.79 51.32a26.64 26.64 0 0 0-23.01-13.29H184.93a26.64 26.64 0 0 0-23.01 13.29L94.34 168.38l-19.73-11.39L142.2 39.93c8.79-15.22 25.16-24.67 42.74-24.67h214.84c17.57 0 33.95 9.45 42.74 24.67l69.83 120.95-19.73 11.39zm-67.01 7.9l-41.34-71.6a26.64 26.64 0 0 0-23.01-13.29H234.49a26.64 26.64 0 0 0-23.01 13.29l-38.9 67.38-19.73-11.39 38.9-67.38c8.79-15.22 25.16-24.67 42.74-24.67h126.77c17.57 0 33.95 9.45 42.74 24.67l41.34 71.6-19.73 11.39zm-25.83 305.9H184.93c-17.57 0-33.95-9.45-42.74-24.67L83.78 360.23l19.73-11.39 58.41 101.17a26.64 26.64 0 0 0 23.01 13.29h214.84a26.64 26.64 0 0 0 23.01-13.29l51.82-89.75 19.73 11.39-51.82 89.75c-8.79 15.22-25.16 24.67-42.74 24.67zm-35.74-50.5H237.27c-17.57 0-33.95-9.45-42.74-24.67l-41.14-71.26 19.73-11.39 41.14 71.26a26.64 26.64 0 0 0 23.01 13.29h126.77a26.64 26.64 0 0 0 23.01-13.29l38.02-65.86 19.73 11.39-38.02 65.86c-8.79 15.22-25.16 24.67-42.74 24.67zM69.84 204.36h0a9.88 9.88 0 0 1 3.47 13.52l-18.34 30.99c-1.74 2.95-1.84 6.59-.24 9.62l19.26 36.61c2.54 4.82.68 10.79-4.14 13.33h0c-4.82 2.54-10.79.68-13.33-4.14l-24.39-46.37a9.89 9.89 0 0 1 .24-9.62l23.95-40.48a9.88 9.88 0 0 1 13.52-3.47zm453.17 110.15h0a9.88 9.88 0 0 1-3.47-13.52L537.88 270c1.74-2.95 1.84-6.59.24-9.62l-19.26-36.61c-2.54-4.82-.68-10.79 4.14-13.33h0c4.82-2.54 10.79-.68 13.33 4.14l24.39 46.37a9.89 9.89 0 0 1-.24 9.62l-23.95 40.48a9.88 9.88 0 0 1-13.52 3.47z"/><circle cx="440.41" cy="185.9" r="17.08"/><circle cx="508.28" cy="175.6" r="17.08"/><circle cx="89.65" cy="343.96" r="17.08"/><circle cx="157.52" cy="326.88" r="17.08"/><text font-family="RobotoMono-Regular,Roboto Mono" font-size="132.48"><tspan x="598.64" y="237.69">tellus</tspan></text><text font-family="Roboto-Black,Roboto" font-size="146.18"><tspan x="600.64" y="394.08">Coope</tspan><tspan class="D" x="1022.63" y="394.08">r</tspan><tspan x="1075.87" y="394.08">ati</tspan><tspan class="E" x="1243.83" y="394.08">v</tspan><tspan class="F" x="1318.42" y="394.08">e</tspan></text></svg>