<?xml version="1.0" encoding="utf-8"?>
<!-- Generator: Adobe Illustrator 26.1.0, SVG Export Plug-In . SVG Version: 6.00 Build 0)  -->
<svg version="1.1" id="Layer_1" xmlns="http://www.w3.org/2000/svg" xmlns:xlink="http://www.w3.org/1999/xlink" x="0px" y="0px"
	 viewBox="0 0 649 548" style="enable-background:new 0 0 649 548;" xml:space="preserve">
<style type="text/css">
	.st0{fill-rule:evenodd;clip-rule:evenodd;}
	.st1{fill-rule:evenodd;clip-rule:evenodd;fill:#22333F;stroke:#000000;stroke-width:4;}
	.st2{fill:#F9F9F9;}
	.st3{fill:none;stroke:#F9F9F9;stroke-width:8;}
</style>
<g id="_xD83D__xDDA5_-Website">
	<g id="Landing" transform="translate(-22.000000, -2966.000000)">
		<g id="HeroContent_5" transform="translate(0.000000, 2924.000000)">
			
				<g id="Group-7" transform="translate(354.000000, 312.500000) rotate(20.000000) translate(-354.000000, -312.500000) translate(84.500000, 127.500000)">
				<g id="Rectangle" transform="translate(269.500000, 185.000000) rotate(90.000000) translate(-269.500000, -185.000000) ">
					<g>
						<path id="path-1" class="st0" d="M134.5-84.5l270,0c27.6,0,50,22.4,50,50l0,439c0,27.6-22.4,50-50,50l-270,0
							c-27.6,0-50-22.4-50-50l0-439C84.5-62.1,106.9-84.5,134.5-84.5z"/>
					</g>
					<path class="st1" d="M136.5-82.5l266,0c27.6,0,50,22.4,50,50l0,435c0,27.6-22.4,50-50,50l-266,0c-27.6,0-50-22.4-50-50l0-435
						C86.5-60.1,108.9-82.5,136.5-82.5z"/>
				</g>
				<g>
					<path class="st2" d="M113.9,79.5c-3.5,1.2-5.9,3.4-7.6,6.4c-5.3,9.1-10.5,18.2-15.8,27.3c-6.3,10.9-12.6,21.8-18.9,32.7
						c-0.1,0.2-0.2,0.4-0.3,0.5c-0.2,0.3-0.5,0.4-0.8,0.2c-0.6-0.3-1.1-0.6-1.7-0.9c-2.4-1.4-4.9-2.8-7.3-4.2c-1-0.6-1-0.6-0.4-1.7
						c2-3.5,4.1-7.1,6.1-10.6c3.6-6.3,7.2-12.6,10.9-18.8c3.7-6.4,7.4-12.8,11.1-19.2C91.5,87,93.8,83,96.2,79
						c2.6-4.4,6.3-7.6,10.9-9.9c3.8-1.9,7.8-2.6,12.1-2.6c12.3,0,24.6,0,36.9,0c16.4,0,32.7,0,49.1,0c8.6,0,17.2-0.1,25.8,0
						c8.5,0.1,15.4,3.6,20.7,10.3c1.5,2,2.7,4.2,3.9,6.3c4.5,7.7,8.9,15.4,13.4,23.2c4.3,7.4,8.6,14.9,12.9,22.3
						c2.3,3.9,4.6,7.9,6.8,11.8c0.4,0.7,0.9,1.1,1.7,1.4c3.6,1.2,5.8,3.7,6.3,7.4c0.5,3.7-0.9,6.8-4,8.9c-4.4,2.9-10.1,1.6-12.9-3.1
						c-1.1-1.9-1.4-3.9-1.1-6c0.1-0.6,0.1-1.2-0.3-1.7c-3.9-6.7-7.7-13.4-11.6-20.1c-2.7-4.7-5.4-9.4-8.1-14.1
						c-3-5.2-6-10.4-8.9-15.6c-2.4-4.1-4.6-8.2-7.1-12.2c-2.7-4.4-6.8-6.6-11.9-6.6c-11.8,0-23.5,0-35.3,0c-14.6,0-29.2,0-43.7,0
						c-11,0-21.9,0-32.9,0C117,78.7,115.3,78.9,113.9,79.5z"/>
					<path class="st2" d="M239.6,311.6c-2.9,1.1-5.8,1.5-8.9,1.5c-14.7,0-29.5,0-44.2,0c-19.1,0-38.1,0-57.2,0
						c-3.9,0-7.7,0.1-11.6-0.1c-9.7-0.4-17-4.8-21.9-13.1c-4-6.7-7.8-13.4-11.7-20.2c-3.3-5.6-6.5-11.3-9.8-16.9
						c-2.8-4.9-5.7-9.8-8.5-14.7c-0.4-0.7-0.9-1.2-1.6-1.6c-4.9-2.5-6.3-8.8-3.1-13.3c2.7-3.7,7.1-4.7,11-3c4,1.7,6.2,6,5.3,10.2
						c0,0.1,0,0.3-0.1,0.4c-0.7,1.3-0.2,2.4,0.5,3.6c3.1,5.2,6,10.4,9,15.7c2.5,4.4,5.1,8.7,7.6,13.1c3.9,6.8,7.8,13.5,11.7,20.3
						c2.9,5,7.2,7.4,13,7.4c7.2,0,14.5,0,21.7,0c15.7,0,31.4,0,47.2,0c13.9,0,27.8,0,41.7,0c3.7,0,7.1-0.9,10-3.3
						c1.7-1.4,2.8-3.2,3.9-5.1c4.5-7.8,9-15.7,13.5-23.5c3.8-6.6,7.6-13.1,11.4-19.7c0.3-0.5,0.6-1,0.9-1.5c0.5-0.9,0.6-0.9,1.4-0.4
						c2.2,1.2,4.3,2.5,6.5,3.7c0.8,0.4,1.6,0.9,2.3,1.4c0.8,0.5,0.9,0.6,0.4,1.4c-1,1.8-2.1,3.6-3.1,5.4
						c-4.2,7.3-8.4,14.6-12.6,21.9c-3.8,6.6-7.5,13.1-11.4,19.6c-2.4,4.1-5.9,7.2-10.2,9.4C241.6,310.8,240.6,311.2,239.6,311.6z"/>
					<path class="st2" d="M168.4,228.9c-1.8-5.2-2.3-10.5-1.8-15.9c0.5-5.2,1.4-10.4,2.2-15.6c1.2-7.7,2.6-15.3,3.4-23.1
						c0.2-1.5,0.2-3,0.3-4.5c0-1.7-0.6-2.4-2.3-2.7c-0.9-0.2-1.9-0.2-2.8-0.2c-5.9,0.1-11.9,0.2-17.8,1.2c-2.5,0.4-5,1-7.3,2.2
						c-1.6,0.8-2.9,2-3.8,3.5c-0.5,0.8-1.2,1.4-2,1.9c-0.2,0.1-0.4,0.3-0.7,0.3c-0.9,0.2-1.4-0.3-1.3-1.2c0.2-1.1,0.7-2.1,1.2-3.1
						c1.1-2.1,2.4-4,3.8-5.8c2.6-3.7,5.6-7,8.6-10.4c2.5-2.9,5.8-4.3,9.5-4.7c4.7-0.6,9.5-0.6,14.3-0.6c13.1,0.1,26.3,0.6,39.4,1
						c1.3,0,2.5,0.2,3.7,0.8c2.7,1.4,4,3.8,4,6.8c0,0.9-0.1,1.9-0.2,2.8c-0.4,4.1-3.5,6.9-7.7,6.7c-4.1-0.2-8.3-0.6-12.4-0.8
						c-2.6-0.1-5.3-0.2-7.9,0c-2.4,0.1-2.7,0.4-3.1,2.7c-0.5,2.7-0.6,5.4-0.8,8.1c-0.5,11.1-0.8,22.2-0.8,33.3c0,2.8,0,5.7,0.5,8.5
						c0.3,1.8,1.1,3.3,2.6,4.4c2,1.5,4.4,1.5,6.7,0c2.2-1.4,4-3.4,5.5-5.4c1.3-1.7,2.4-3.4,3.7-5c0.3-0.4,0.6-0.8,1-1.1
						c0.5-0.4,0.9-0.3,1,0.4c0.1,0.3,0.1,0.6,0.1,0.8c-0.5,5.1-0.9,10.3-3,15.2c-2,4.8-5.4,8.4-10,10.7c-4,2-8.2,2.5-12.6,1.5
						c-4.8-1.1-8.4-3.9-11-8C169.7,232,168.9,230.5,168.4,228.9z"/>
					<path class="st2" d="M135.4,98.1c3.3-1.3,6.7-1.6,10.2-1.6c11,0,22,0,33,0c10.9,0,21.8-0.1,32.7,0.1c8.9,0.2,16,4.2,21,11.7
						c2.2,3.3,4.1,6.9,6.1,10.3c2.6,4.4,5.1,8.9,7.7,13.3c2.8,4.9,5.6,9.7,8.4,14.6c0.3,0.6,0.8,1,1.4,1.3c3.3,1.6,5,4.2,5.2,7.8
						c0.2,3.7-1.4,6.5-4.5,8.3c-3.2,1.9-7.1,1.5-10.3-0.9c-2.7-2-4-5.9-3-9.3c0.3-1,0.2-1.8-0.4-2.8c-3.6-6.1-7.1-12.3-10.6-18.4
						c-3.3-5.6-6.5-11.3-9.8-16.9c-2.7-4.6-6.8-6.8-12-6.9c-9.6-0.1-19.1,0-28.7,0c-12.3,0-24.6,0-36.9,0c-3.9,0-7.3,1.2-10.1,3.9
						c-0.9,0.8-1.7,1.8-2.3,2.9c-5.5,9.6-11,19.1-16.6,28.7c-1.1,1.9-2.2,3.9-3.4,5.8c-0.6,1-0.7,1.1-1.7,0.5
						c-2.8-1.6-5.6-3.2-8.5-4.9c-1-0.6-1.1-0.7-0.5-1.7c2.4-4.1,4.7-8.2,7.1-12.3c4.3-7.5,8.6-15,13-22.4c2.4-4.1,5.7-7.2,9.8-9.4
						C133,99,134.2,98.5,135.4,98.1z"/>
					<path class="st2" d="M220.4,285.3c-2.5,1-5.5,1.4-8.6,1.4c-7,0-14.1,0-21.1,0c-13.6,0-27.3,0-40.9,0c-2.3,0-4.6,0.1-6.8-0.2
						c-8.8-1.1-15.5-5.6-19.9-13.3c-2.2-3.8-4.4-7.5-6.5-11.3c-3.5-6-7-12.1-10.4-18.1c-0.8-1.3-1.6-2.7-2.3-4
						c-0.4-0.7-1-1.1-1.8-1.3c-4.7-1.1-7.5-5.4-6.8-10.1c0.8-5.8,6.9-9.3,12.3-7.2c3.8,1.5,6,5.1,5.7,9.2c-0.1,0.8,0.1,1.4,0.5,2.1
						c4,6.9,8,13.8,12,20.7c2.6,4.6,5.3,9.2,7.9,13.8c2.9,5.1,7.2,7.6,13,7.5c8.9,0,17.8,0,26.7,0c12.7,0,25.5,0,38.2,0
						c5.6,0,9.8-2.3,12.6-7.1c3.7-6.3,7.3-12.6,10.9-18.9c2.7-4.7,5.4-9.4,8.1-14.1c0.1-0.1,0.2-0.3,0.3-0.4
						c0.6-0.9,0.6-0.9,1.5-0.4c2.9,1.7,5.8,3.3,8.7,5c0.8,0.5,0.9,0.6,0.4,1.4c-1.5,2.6-3,5.2-4.5,7.8c-5,8.7-10,17.3-15,26
						c-2.5,4.3-5.9,7.5-10.3,9.8C223.1,284.3,222,284.7,220.4,285.3z"/>
					<path class="st2" d="M53.7,165c2-0.7,4.4-0.1,5.8,1.5c1.5,1.7,1.8,4.1,0.6,6.1c-1.4,2.5-3,5.1-4.5,7.6c-1.7,2.8-3.4,5.7-5,8.5
						c-0.9,1.6-1.1,3.2-0.3,4.9c1,2.1,2.1,4.1,3.2,6.2c2.3,4.4,4.7,8.8,7,13.3c1.3,2.5,0.3,5.5-2.1,7c-2.3,1.4-5.4,0.7-7-1.5
						c-1.1-1.5-1.8-3.3-2.7-4.9c-3.2-6.1-6.5-12.2-9.7-18.4c-0.5-0.9-0.9-1.7-1.2-2.7c-0.4-1.5-0.2-2.8,0.5-4.1
						c3-5.2,6.1-10.3,9.1-15.5c1.1-1.8,2.1-3.6,3.2-5.5C51.5,166.5,52.4,165.5,53.7,165z"/>
					<path class="st2" d="M315.4,195.7c0.6,1.7,0.4,3.2-0.4,4.7c-2.9,4.9-5.8,9.9-8.8,14.8c-1.2,2-2.4,4.1-3.6,6.1
						c-1,1.7-2.4,2.7-4.3,2.8c-2.1,0.2-3.7-0.7-4.9-2.4c-1.1-1.7-1.2-3.5-0.2-5.2c1.1-2,2.3-3.9,3.4-5.9c1.9-3.3,3.9-6.6,5.8-9.9
						c0.4-0.7,0.8-1.4,1-2.2c0.3-1.3,0.1-2.4-0.5-3.6c-2.9-5.5-5.8-10.9-8.7-16.4c-0.5-1-1.1-2.1-1.6-3.2c-1-2.6,0-5.3,2.3-6.5
						c2.6-1.4,5.4-0.8,7,1.6c0.8,1.2,1.5,2.6,2.2,4c3.3,6.2,6.6,12.5,9.8,18.7C314.6,193.9,315,194.8,315.4,195.7z"/>
				</g>
				<path id="Path-2" class="st3" d="M446.8,169.2c4,10,6,18.3,6,25s-2,15-6,25"/>
				<path id="Path-2_00000054974828498693213710000005211690134677758606_" class="st3" d="M460.8,169.2c4,10,6,18.3,6,25
					c0,6.7-2,15-6,25"/>
				<path id="Path-2_00000098922900165573817830000010037212373666836643_" class="st3" d="M476.8,169.2c4,10,6,18.3,6,25
					s-2,15-6,25"/>
			</g>
		</g>
	</g>
</g>
</svg>
